<svg xmlns="http://www.w3.org/2000/svg" xmlns:xlink="http://www.w3.org/1999/xlink" width="500" zoomAndPan="magnify" viewBox="0 0 375 374.999991" height="500" preserveAspectRatio="xMidYMid meet" version="1.0"><path fill="#ff9e33" d="M 90.726562 24.195312 C 80.722656 24.195312 72.582031 32.335938 72.582031 42.339844 C 72.582031 52.34375 80.722656 60.484375 90.726562 60.484375 C 100.730469 60.484375 108.871094 52.34375 108.871094 42.339844 C 108.871094 32.335938 100.730469 24.195312 90.726562 24.195312 Z M 90.726562 48.386719 C 87.386719 48.386719 84.675781 45.671875 84.675781 42.339844 C 84.675781 39.007812 87.386719 36.289062 90.726562 36.289062 C 94.066406 36.289062 96.773438 39.007812 96.773438 42.339844 C 96.773438 45.671875 94.066406 48.386719 90.726562 48.386719 Z M 90.726562 48.386719 " fill-opacity="1" fill-rule="nonzero"/><path fill="#ff9e33" d="M 72.582031 84.675781 L 84.675781 84.675781 L 84.675781 120.96875 L 72.582031 120.96875 L 72.582031 133.066406 L 108.871094 133.066406 L 108.871094 120.96875 L 96.773438 120.96875 L 96.773438 84.675781 L 108.871094 84.675781 L 108.871094 72.582031 L 72.582031 72.582031 Z M 72.582031 84.675781 " fill-opacity="1" fill-rule="nonzero"/><path fill="#ff9e33" d="M 96.773438 181.453125 L 24.195312 181.453125 C 10.851562 181.453125 0 192.300781 0 205.644531 L 0 350.804688 C 0 364.148438 10.851562 375 24.195312 375 L 96.773438 375 C 110.117188 375 120.96875 364.148438 120.96875 350.804688 L 120.96875 205.644531 C 120.96875 192.300781 110.117188 181.453125 96.773438 181.453125 Z M 24.195312 193.546875 L 96.773438 193.546875 C 103.445312 193.546875 108.871094 198.972656 108.871094 205.644531 L 12.097656 205.644531 C 12.097656 198.972656 17.523438 193.546875 24.195312 193.546875 Z M 96.773438 362.902344 L 24.195312 362.902344 C 17.523438 362.902344 12.097656 357.476562 12.097656 350.804688 L 12.097656 217.742188 L 108.871094 217.742188 L 108.871094 350.804688 C 108.871094 357.476562 103.445312 362.902344 96.773438 362.902344 Z M 96.773438 362.902344 " fill-opacity="1" fill-rule="nonzero"/><path fill="#ff9e33" d="M 24.195312 278.226562 L 96.773438 278.226562 L 96.773438 229.839844 L 24.195312 229.839844 Z M 36.289062 241.933594 L 84.675781 241.933594 L 84.675781 266.128906 L 36.289062 266.128906 Z M 36.289062 241.933594 " fill-opacity="1" fill-rule="nonzero"/><path fill="#ff9e33" d="M 78.628906 290.324219 C 68.625 290.324219 60.484375 298.464844 60.484375 308.46875 C 60.484375 318.472656 68.625 326.613281 78.628906 326.613281 C 88.632812 326.613281 96.773438 318.472656 96.773438 308.46875 C 96.773438 298.464844 88.632812 290.324219 78.628906 290.324219 Z M 78.628906 314.515625 C 75.289062 314.515625 72.582031 311.804688 72.582031 308.46875 C 72.582031 305.128906 75.289062 302.417969 78.628906 302.417969 C 81.96875 302.417969 84.675781 305.128906 84.675781 308.46875 C 84.675781 311.804688 81.96875 314.515625 78.628906 314.515625 Z M 78.628906 314.515625 " fill-opacity="1" fill-rule="nonzero"/><path fill="#ff9e33" d="M 24.195312 290.324219 L 48.386719 290.324219 L 48.386719 302.417969 L 24.195312 302.417969 Z M 24.195312 290.324219 " fill-opacity="1" fill-rule="nonzero"/><path fill="#ff9e33" d="M 24.195312 314.515625 L 48.386719 314.515625 L 48.386719 326.613281 L 24.195312 326.613281 Z M 24.195312 314.515625 " fill-opacity="1" fill-rule="nonzero"/><path fill="#ff9e33" d="M 24.195312 338.710938 L 96.773438 338.710938 L 96.773438 350.804688 L 24.195312 350.804688 Z M 24.195312 338.710938 " fill-opacity="1" fill-rule="nonzero"/><path fill="#ff9e33" d="M 310.972656 72.582031 L 181.453125 72.582031 L 181.453125 18.144531 C 181.453125 8.140625 173.308594 0 163.304688 0 L 18.144531 0 C 8.140625 0 0 8.140625 0 18.144531 L 0 139.113281 C 0 149.117188 8.140625 157.257812 18.144531 157.257812 L 111.179688 157.257812 L 119.546875 173.980469 C 121.851562 178.589844 126.484375 181.453125 131.636719 181.453125 C 139.09375 181.453125 145.160156 175.386719 145.160156 167.925781 L 145.160156 157.257812 L 157.257812 157.257812 L 157.257812 375 L 375 375 L 375 136.609375 Z M 314.515625 93.230469 L 354.351562 133.066406 L 314.515625 133.066406 Z M 133.066406 145.160156 L 133.066406 167.925781 C 133.066406 169.257812 130.949219 169.746094 130.359375 168.5625 L 118.65625 145.160156 L 18.144531 145.160156 C 14.804688 145.160156 12.097656 142.445312 12.097656 139.113281 L 12.097656 18.144531 C 12.097656 14.8125 14.804688 12.097656 18.144531 12.097656 L 163.304688 12.097656 C 166.644531 12.097656 169.355469 14.8125 169.355469 18.144531 L 169.355469 139.113281 C 169.355469 142.445312 166.644531 145.160156 163.304688 145.160156 Z M 169.355469 362.902344 L 169.355469 156.144531 C 176.378906 153.640625 181.453125 146.988281 181.453125 139.113281 L 181.453125 84.675781 L 302.417969 84.675781 L 302.417969 145.160156 L 362.902344 145.160156 L 362.902344 362.902344 Z M 169.355469 362.902344 " fill-opacity="1" fill-rule="nonzero"/><path fill="#ff9e33" d="M 193.546875 96.773438 L 290.324219 96.773438 L 290.324219 108.871094 L 193.546875 108.871094 Z M 193.546875 96.773438 " fill-opacity="1" fill-rule="nonzero"/><path fill="#ff9e33" d="M 193.546875 120.96875 L 290.324219 120.96875 L 290.324219 133.066406 L 193.546875 133.066406 Z M 193.546875 120.96875 " fill-opacity="1" fill-rule="nonzero"/><path fill="#ff9e33" d="M 254.03125 193.546875 L 181.453125 193.546875 L 181.453125 302.417969 L 290.324219 302.417969 L 290.324219 254.03125 L 350.804688 254.03125 L 350.804688 157.257812 L 254.03125 157.257812 Z M 278.226562 290.324219 L 193.546875 290.324219 L 193.546875 205.644531 L 254.03125 205.644531 L 254.03125 254.03125 L 278.226562 254.03125 Z M 266.128906 169.355469 L 338.710938 169.355469 L 338.710938 241.933594 L 266.128906 241.933594 Z M 266.128906 169.355469 " fill-opacity="1" fill-rule="nonzero"/><path fill="#ff9e33" d="M 181.453125 314.515625 L 350.804688 314.515625 L 350.804688 326.613281 L 181.453125 326.613281 Z M 181.453125 314.515625 " fill-opacity="1" fill-rule="nonzero"/><path fill="#ff9e33" d="M 338.710938 338.710938 L 350.804688 338.710938 L 350.804688 350.804688 L 338.710938 350.804688 Z M 338.710938 338.710938 " fill-opacity="1" fill-rule="nonzero"/><path fill="#ff9e33" d="M 181.453125 338.710938 L 326.613281 338.710938 L 326.613281 350.804688 L 181.453125 350.804688 Z M 181.453125 338.710938 " fill-opacity="1" fill-rule="nonzero"/></svg>